<mxfile host="app.diagrams.net" modified="2023-05-22T14:21:57.958Z" agent="Mozilla/5.0 (Windows NT 10.0; Win64; x64) AppleWebKit/537.36 (KHTML, like Gecko) Chrome/113.0.0.0 Safari/537.36 Edg/113.0.1774.50" etag="OfD1Zz_FsXSk6nRJ7hHm" version="21.3.2" type="device">
  <diagram name="Page-1" id="qqPHltkYxfAaylnLrzff">
    <mxGraphModel dx="1114" dy="584" grid="1" gridSize="10" guides="1" tooltips="1" connect="1" arrows="1" fold="1" page="1" pageScale="1" pageWidth="850" pageHeight="1100" math="0" shadow="0">
      <root>
        <mxCell id="0" />
        <mxCell id="1" parent="0" />
        <mxCell id="Uytmos-608Tqqh-gBSvN-1" value="E-BANKING&lt;br&gt;SYSTEM" style="ellipse;whiteSpace=wrap;html=1;aspect=fixed;" parent="1" vertex="1">
          <mxGeometry x="425" y="440" width="80" height="80" as="geometry" />
        </mxCell>
        <mxCell id="Uytmos-608Tqqh-gBSvN-2" value="Manager" style="rounded=0;whiteSpace=wrap;html=1;" parent="1" vertex="1">
          <mxGeometry x="280" y="310" width="120" height="60" as="geometry" />
        </mxCell>
        <mxCell id="Uytmos-608Tqqh-gBSvN-3" value="" style="endArrow=classic;html=1;rounded=0;exitX=0.5;exitY=1;exitDx=0;exitDy=0;entryX=0;entryY=0;entryDx=0;entryDy=0;" parent="1" source="Uytmos-608Tqqh-gBSvN-2" target="Uytmos-608Tqqh-gBSvN-1" edge="1">
          <mxGeometry width="50" height="50" relative="1" as="geometry">
            <mxPoint x="350" y="430" as="sourcePoint" />
            <mxPoint x="400" y="380" as="targetPoint" />
            <Array as="points">
              <mxPoint x="340" y="452" />
            </Array>
          </mxGeometry>
        </mxCell>
        <mxCell id="Uytmos-608Tqqh-gBSvN-4" value="Manage bank saving request&lt;br&gt;View VIP custumer" style="edgeLabel;html=1;align=center;verticalAlign=middle;resizable=0;points=[];" parent="Uytmos-608Tqqh-gBSvN-3" vertex="1" connectable="0">
          <mxGeometry x="-0.7142" y="3" relative="1" as="geometry">
            <mxPoint x="-83" y="4" as="offset" />
          </mxGeometry>
        </mxCell>
        <mxCell id="Uytmos-608Tqqh-gBSvN-5" value="Customer" style="rounded=0;whiteSpace=wrap;html=1;" parent="1" vertex="1">
          <mxGeometry x="280" y="550" width="120" height="60" as="geometry" />
        </mxCell>
        <mxCell id="Uytmos-608Tqqh-gBSvN-6" value="Transfer money in the same bank&lt;br&gt;Make bank saving&lt;br&gt;Pay bills" style="endArrow=classic;html=1;rounded=0;exitX=0.5;exitY=0;exitDx=0;exitDy=0;entryX=0;entryY=0.5;entryDx=0;entryDy=0;" parent="1" source="Uytmos-608Tqqh-gBSvN-5" target="Uytmos-608Tqqh-gBSvN-1" edge="1">
          <mxGeometry x="-0.4839" y="90" width="50" height="50" relative="1" as="geometry">
            <mxPoint x="360" y="540" as="sourcePoint" />
            <mxPoint x="410" y="490" as="targetPoint" />
            <Array as="points">
              <mxPoint x="340" y="480" />
            </Array>
            <mxPoint as="offset" />
          </mxGeometry>
        </mxCell>
        <mxCell id="Uytmos-608Tqqh-gBSvN-7" value="Account information&lt;br&gt;Transaction history" style="endArrow=classic;html=1;rounded=0;exitX=0.5;exitY=1;exitDx=0;exitDy=0;entryX=0.5;entryY=1;entryDx=0;entryDy=0;" parent="1" source="Uytmos-608Tqqh-gBSvN-1" target="Uytmos-608Tqqh-gBSvN-5" edge="1">
          <mxGeometry x="0.2" y="30" width="50" height="50" relative="1" as="geometry">
            <mxPoint x="370" y="760" as="sourcePoint" />
            <mxPoint x="455" y="690" as="targetPoint" />
            <Array as="points">
              <mxPoint x="465" y="690" />
              <mxPoint x="340" y="690" />
            </Array>
            <mxPoint as="offset" />
          </mxGeometry>
        </mxCell>
        <mxCell id="Uytmos-608Tqqh-gBSvN-8" value="Staff" style="rounded=0;whiteSpace=wrap;html=1;" parent="1" vertex="1">
          <mxGeometry x="560" y="560" width="120" height="60" as="geometry" />
        </mxCell>
        <mxCell id="Uytmos-608Tqqh-gBSvN-9" value="Create, delete and edit customer&#39;s account&lt;br&gt;Freeze customer&#39;s account" style="endArrow=classic;html=1;rounded=0;exitX=0.5;exitY=0;exitDx=0;exitDy=0;entryX=1;entryY=0.5;entryDx=0;entryDy=0;" parent="1" source="Uytmos-608Tqqh-gBSvN-8" target="Uytmos-608Tqqh-gBSvN-1" edge="1">
          <mxGeometry x="-0.4872" y="-120" width="50" height="50" relative="1" as="geometry">
            <mxPoint x="350" y="560" as="sourcePoint" />
            <mxPoint x="435" y="490" as="targetPoint" />
            <Array as="points">
              <mxPoint x="620" y="480" />
            </Array>
            <mxPoint y="-1" as="offset" />
          </mxGeometry>
        </mxCell>
        <mxCell id="Uytmos-608Tqqh-gBSvN-10" value="Customer&#39;s account information &lt;br&gt;and bank saving" style="endArrow=classic;html=1;rounded=0;exitX=1;exitY=1;exitDx=0;exitDy=0;entryX=0.5;entryY=1;entryDx=0;entryDy=0;" parent="1" source="Uytmos-608Tqqh-gBSvN-1" target="Uytmos-608Tqqh-gBSvN-8" edge="1">
          <mxGeometry x="0.3135" y="-30" width="50" height="50" relative="1" as="geometry">
            <mxPoint x="490" y="590" as="sourcePoint" />
            <mxPoint x="615" y="650" as="targetPoint" />
            <Array as="points">
              <mxPoint x="493" y="690" />
              <mxPoint x="550" y="690" />
              <mxPoint x="620" y="690" />
            </Array>
            <mxPoint as="offset" />
          </mxGeometry>
        </mxCell>
      </root>
    </mxGraphModel>
  </diagram>
</mxfile>
